<!-- Generator: Adobe Illustrator 19.2.1, SVG Export Plug-In  -->
<svg version="1.1"
	 xmlns="http://www.w3.org/2000/svg" xmlns:xlink="http://www.w3.org/1999/xlink" xmlns:a="http://ns.adobe.com/AdobeSVGViewerExtensions/3.0/"
	 x="0px" y="0px" width="202.959px" height="40.76px" viewBox="0 0 202.959 40.76"
	 style="enable-background:new 0 0 202.959 40.76;" xml:space="preserve">
<style type="text/css">
	.st0{fill:#DF1C24;}
	.st1{font-family:'Gotham-Book';}
	.st2{font-size:40px;}
</style>
<defs>
</defs>
<g>
	<g>
		<path d="M75.7,31.58c-0.787,0.6-1.634,1.114-2.54,1.54c-0.907,0.427-1.88,0.76-2.92,1c-1.04,0.24-2.2,0.36-3.48,0.36
			c-2.026,0-3.894-0.374-5.6-1.12c-1.707-0.746-3.187-1.766-4.44-3.06c-1.254-1.293-2.233-2.82-2.939-4.58
			c-0.707-1.76-1.061-3.653-1.061-5.68c0-2,0.354-3.88,1.061-5.64c0.706-1.76,1.686-3.3,2.939-4.62c1.254-1.32,2.746-2.36,4.48-3.12
			c1.732-0.76,3.626-1.14,5.68-1.14c1.28,0,2.434,0.107,3.46,0.32c1.026,0.214,1.979,0.514,2.86,0.9
			c0.88,0.387,1.693,0.854,2.439,1.4c0.746,0.547,1.467,1.154,2.16,1.82l-2.16,2.32c-1.199-1.12-2.486-2.04-3.859-2.76
			c-1.374-0.72-3.021-1.08-4.94-1.08c-1.547,0-2.979,0.294-4.3,0.88c-1.32,0.587-2.467,1.4-3.439,2.44
			c-0.975,1.04-1.734,2.26-2.281,3.66S56,18.333,56,19.959c0,1.627,0.272,3.147,0.819,4.56c0.547,1.414,1.307,2.64,2.281,3.68
			c0.973,1.04,2.119,1.86,3.439,2.46c1.32,0.6,2.753,0.9,4.3,0.9c1.92,0,3.573-0.353,4.96-1.06c1.387-0.706,2.746-1.7,4.08-2.98
			l2.08,2.04C77.24,30.306,76.486,30.979,75.7,31.58z"/>
		<path d="M86.64,21.399V34h-3.16V6h3.16v12.44h16.16V6h3.16v28h-3.16v-12.6H86.64z"/>
		<path d="M139.96,34h-3.4l-3.28-7.4H118.04l-3.32,7.4h-3.24l12.76-28.2h2.96L139.96,34z M125.679,9.52l-6.399,14.28h12.761
			L125.679,9.52z"/>
		<path d="M158.919,26.319h-0.16l-10.199-14.96V34h-3.08V6h3.199l10.2,15.28L169.079,6h3.199v28h-3.159v-22.68L158.919,26.319z"/>
		<path d="M200.279,18.919c-0.587,1.147-1.38,2.107-2.38,2.88c-1,0.774-2.167,1.354-3.5,1.74c-1.334,0.387-2.747,0.58-4.24,0.58
			h-6.8V34h-3.16V6h10.479c1.574,0,3.007,0.207,4.301,0.62c1.293,0.414,2.4,1,3.32,1.76c0.92,0.76,1.625,1.694,2.119,2.8
			c0.494,1.107,0.74,2.354,0.74,3.74C201.159,16.439,200.866,17.773,200.279,18.919z M195.934,10.459
			c-1.378-1.026-3.202-1.54-5.476-1.54h-7.099v12.32h6.938c1.15,0,2.199-0.146,3.148-0.44c0.949-0.293,1.765-0.713,2.447-1.26
			c0.682-0.546,1.203-1.2,1.564-1.96c0.361-0.76,0.541-1.606,0.541-2.54C197.999,13.013,197.311,11.486,195.934,10.459z"/>
	</g>
	<g>
		<path d="M20,11c4.962,0,9,4.038,9,9s-4.038,9-9,9s-9-4.038-9-9S15.038,11,20,11 M20,10c-5.523,0-10,4.477-10,10
			c0,5.522,4.477,10,10,10c5.523,0,10-4.478,10-10C30,14.477,25.523,10,20,10L20,10z"/>
		<g>
			<path d="M20,2c9.925,0,18,8.075,18,18s-8.075,18-18,18S2,29.925,2,20S10.075,2,20,2 M20,0C8.955,0,0,8.954,0,20
				c0,11.045,8.955,20,20,20c11.046,0,20-8.955,20-20C40,8.954,31.046,0,20,0L20,0z"/>
			<rect x="19" width="2" height="8"/>
			<rect x="19" y="32" width="2" height="8"/>
			<rect x="32" y="19" width="8" height="2"/>
			<rect y="19" width="8" height="2"/>
		</g>
		<circle class="st0" cx="20" cy="13" r="1"/>
		<circle class="st0" cx="20" cy="27" r="1"/>
		<ellipse transform="matrix(0.8661 -0.4999 0.4999 0.8661 -4.7578 10.1154)" class="st0" cx="16.5" cy="13.937" rx="1" ry="1"/>
		<ellipse transform="matrix(0.8661 -0.4999 0.4999 0.8661 -9.8815 15.2387)" class="st0" cx="23.5" cy="26.062" rx="1" ry="1"/>
		<ellipse transform="matrix(0.4999 -0.8661 0.8661 0.4999 -7.3198 20.3218)" class="st0" cx="13.938" cy="16.499" rx="1" ry="1"/>
		<ellipse transform="matrix(0.5004 -0.8658 0.8658 0.5004 -7.3253 34.3044)" class="st0" cx="26.062" cy="23.5" rx="1" ry="1"/>
		<circle class="st0" cx="13" cy="20" r="1"/>
		<circle class="st0" cx="27" cy="20" r="1"/>
		<ellipse transform="matrix(0.8658 -0.5004 0.5004 0.8658 -9.8888 10.1283)" class="st0" cx="13.938" cy="23.5" rx="1" ry="1"/>
		<ellipse transform="matrix(0.8663 -0.4994 0.4994 0.8663 -4.7574 15.2214)" class="st0" cx="26.062" cy="16.5" rx="1" ry="1"/>
		<ellipse transform="matrix(0.4997 -0.8662 0.8662 0.4997 -14.32 27.3292)" class="st0" cx="16.5" cy="26.062" rx="1" ry="1"/>
		<ellipse transform="matrix(0.5005 -0.8657 0.8657 0.5005 -0.3282 27.3061)" class="st0" cx="23.499" cy="13.938" rx="1" ry="1"/>
	</g>
</g>
</svg>