<!-- Generator: Adobe Illustrator 19.2.1, SVG Export Plug-In  -->
<svg version="1.1"
	 xmlns="http://www.w3.org/2000/svg" xmlns:xlink="http://www.w3.org/1999/xlink" xmlns:a="http://ns.adobe.com/AdobeSVGViewerExtensions/3.0/"
	 x="0px" y="0px" width="26px" height="12.251px" viewBox="0 0 26 12.251" style="enable-background:new 0 0 26 12.251;"
	 xml:space="preserve">
<defs>
</defs>
<g>
	<path d="M25.783,7.101L23.71,9.173H11.429c-1.036,1.829-3.048,3.078-5.333,3.078C2.743,12.251,0,9.508,0,6.126S2.743,0,6.095,0
		c2.316,0,4.328,1.28,5.364,3.169h3.596l1.859,2.651l1.646-1.707h0.488l1.737,1.737l2.469-1.737h0.366l2.164,2.072
		C26.057,6.491,26.087,6.766,25.783,7.101z M3.81,8.289c1.188,0,2.164-0.975,2.164-2.164S4.998,3.962,3.81,3.962
		c-1.189,0-2.164,0.975-2.164,2.164S2.621,8.289,3.81,8.289z"/>
</g>
</svg>