<!-- Generator: Adobe Illustrator 19.2.1, SVG Export Plug-In  -->
<svg version="1.1"
	 xmlns="http://www.w3.org/2000/svg" xmlns:xlink="http://www.w3.org/1999/xlink" xmlns:a="http://ns.adobe.com/AdobeSVGViewerExtensions/3.0/"
	 x="0px" y="0px" width="200px" height="60px" viewBox="0 0 200 60" style="enable-background:new 0 0 200 60;"
	 xml:space="preserve">
<style type="text/css">
	.st0{fill:#DD4916;}
	.st1{fill:#FE5A19;}
	.st2{fill:#FFFFFF;}
</style>
<defs>
</defs>
<path class="st0" d="M197,60H3c-1.657,0-3-1.343-3-3V8c0-1.657,1.343-3,3-3h194c1.657,0,3,1.343,3,3v49
	C200,58.657,198.657,60,197,60z"/>
<path class="st1" d="M197,55H3c-1.657,0-3-1.343-3-3V3c0-1.657,1.343-3,3-3h194c1.657,0,3,1.343,3,3v49
	C200,53.657,198.657,55,197,55z"/>
<g>
	<path class="st2" d="M80.202,33.608c0.459,0,0.842-0.073,1.15-0.22s0.554-0.337,0.74-0.571s0.317-0.497,0.396-0.787
		c0.078-0.291,0.117-0.582,0.117-0.875v-7.471h3.062v7.258c0,0.449-0.033,0.892-0.099,1.329c-0.065,0.437-0.181,0.853-0.344,1.249
		c-0.164,0.396-0.38,0.759-0.648,1.091s-0.605,0.62-1.011,0.864s-0.885,0.435-1.439,0.571s-1.195,0.205-1.922,0.205
		c-0.732,0-1.377-0.068-1.934-0.205s-1.037-0.327-1.439-0.571c-0.403-0.244-0.739-0.532-1.007-0.864s-0.482-0.696-0.641-1.091
		s-0.271-0.812-0.337-1.249c-0.065-0.437-0.099-0.88-0.099-1.329v-7.258h3.025v7.471c0,0.293,0.039,0.585,0.117,0.875
		c0.078,0.291,0.211,0.553,0.399,0.787s0.438,0.425,0.751,0.571S79.739,33.608,80.202,33.608z"/>
	<path class="st2" d="M78.73,21.94v-3.391h2.703v1.055h5.852v2.336H78.73z"/>
	<path class="st2" d="M95.92,35.981v-1.589c-0.454,0.635-0.989,1.104-1.604,1.406s-1.301,0.454-2.058,0.454
		c-0.781,0-1.445-0.133-1.992-0.399s-0.993-0.627-1.336-1.084c-0.345-0.457-0.595-0.991-0.751-1.604s-0.234-1.263-0.234-1.952
		v-7.529h3.025v7.258c0,0.376,0.046,0.719,0.139,1.029c0.093,0.31,0.239,0.575,0.439,0.795s0.455,0.391,0.766,0.513
		c0.31,0.122,0.682,0.183,1.117,0.183c0.283,0,0.566-0.05,0.85-0.15s0.539-0.266,0.765-0.498c0.228-0.232,0.41-0.535,0.55-0.908
		c0.139-0.374,0.208-0.834,0.208-1.381v-6.841h3.062v12.297H95.92z"/>
	<path class="st2" d="M104.079,23.683v1.289c0.234-0.249,0.47-0.47,0.707-0.663s0.49-0.355,0.758-0.487s0.558-0.233,0.868-0.304
		s0.653-0.106,1.029-0.106c0.894,0,1.636,0.115,2.227,0.344s1.064,0.551,1.421,0.963s0.608,0.906,0.754,1.479s0.22,1.205,0.22,1.893
		v7.888h-3.032V27.88c0-0.264-0.044-0.502-0.132-0.714s-0.212-0.394-0.374-0.546s-0.359-0.269-0.593-0.352s-0.498-0.125-0.791-0.125
		c-0.493,0-0.924,0.074-1.292,0.223c-0.369,0.149-0.675,0.356-0.919,0.623s-0.427,0.582-0.549,0.948s-0.183,0.767-0.183,1.201v6.841
		h-3.054V23.683H104.079z"/>
	<path class="st2" d="M107.771,19.508c0-0.313,0.06-0.608,0.179-0.886c0.12-0.278,0.282-0.52,0.487-0.725s0.446-0.367,0.722-0.487
		s0.572-0.179,0.89-0.179c0.313,0,0.608,0.061,0.886,0.183s0.52,0.288,0.725,0.498s0.368,0.455,0.487,0.736s0.179,0.577,0.179,0.89
		c0,0.347-0.06,0.667-0.179,0.959s-0.282,0.547-0.487,0.762s-0.447,0.382-0.725,0.502s-0.574,0.179-0.886,0.179h-9.177l1.194-2.336
		h5.706V19.508z M109.236,19.508c0,0.107,0.021,0.209,0.062,0.304c0.042,0.095,0.099,0.178,0.172,0.249s0.16,0.127,0.26,0.168
		s0.206,0.062,0.318,0.062s0.217-0.021,0.315-0.062s0.183-0.098,0.256-0.168s0.132-0.154,0.176-0.249s0.066-0.197,0.066-0.304
		c0-0.112-0.022-0.217-0.066-0.315s-0.103-0.183-0.176-0.256s-0.159-0.131-0.256-0.172s-0.203-0.062-0.315-0.062
		s-0.218,0.021-0.318,0.062s-0.187,0.099-0.26,0.172s-0.13,0.159-0.172,0.256C109.257,19.291,109.236,19.396,109.236,19.508z"/>
	<path class="st2" d="M119.438,26.049c-0.396-0.005-0.746,0.031-1.051,0.106c-0.306,0.076-0.567,0.175-0.784,0.297
		s-0.393,0.256-0.527,0.403s-0.226,0.288-0.274,0.425c0.254,0.229,0.442,0.524,0.564,0.883s0.183,0.765,0.183,1.219v6.599h-3.032
		v-6.628c0-0.137-0.015-0.277-0.044-0.421s-0.083-0.287-0.161-0.428s-0.186-0.281-0.322-0.417s-0.31-0.264-0.52-0.381
		c0.083-0.347,0.202-0.693,0.355-1.04c0.154-0.347,0.348-0.679,0.583-0.996s0.511-0.613,0.832-0.886
		c0.319-0.273,0.686-0.511,1.099-0.714c0.412-0.203,0.876-0.363,1.392-0.48c0.515-0.117,1.085-0.176,1.71-0.176
		c0.742,0,1.4,0.067,1.974,0.201s1.077,0.32,1.509,0.557c0.433,0.237,0.797,0.52,1.095,0.85s0.539,0.687,0.721,1.073
		c0.184,0.386,0.316,0.793,0.399,1.223s0.125,0.867,0.125,1.311v7.354h-3.091v-7.559c0-0.283-0.045-0.565-0.135-0.846
		c-0.091-0.281-0.242-0.533-0.454-0.758c-0.213-0.225-0.494-0.406-0.843-0.546S119.956,26.059,119.438,26.049z"/>
</g>
</svg>